<svg width="140" height="24" viewBox="0 0 140 24" fill="none" xmlns="http://www.w3.org/2000/svg">
<path d="M0.898438 18V0.820312H13.3203V2.84766H3.17188V8.10938H12.6758V10.125H3.17188V15.9727H13.7188V18H0.898438ZM16.5898 18V5.55469H18.4883V7.32422C19.4023 5.95703 20.7227 5.27344 22.4492 5.27344C23.1992 5.27344 23.8867 5.41016 24.5117 5.68359C25.1445 5.94922 25.6172 6.30078 25.9297 6.73828C26.2422 7.17578 26.4609 7.69531 26.5859 8.29688C26.6641 8.6875 26.7031 9.37109 26.7031 10.3477V18H24.5938V10.4297C24.5938 9.57031 24.5117 8.92969 24.3477 8.50781C24.1836 8.07812 23.8906 7.73828 23.4688 7.48828C23.0547 7.23047 22.5664 7.10156 22.0039 7.10156C21.1055 7.10156 20.3281 7.38672 19.6719 7.95703C19.0234 8.52734 18.6992 9.60938 18.6992 11.2031V18H16.5898ZM29.5625 19.0312L31.6133 19.3359C31.6992 19.9688 31.9375 20.4297 32.3281 20.7188C32.8516 21.1094 33.5664 21.3047 34.4727 21.3047C35.4492 21.3047 36.2031 21.1094 36.7344 20.7188C37.2656 20.3281 37.625 19.7812 37.8125 19.0781C37.9219 18.6484 37.9727 17.7461 37.9648 16.3711C37.043 17.457 35.8945 18 34.5195 18C32.8086 18 31.4844 17.3828 30.5469 16.1484C29.6094 14.9141 29.1406 13.4336 29.1406 11.707C29.1406 10.5195 29.3555 9.42578 29.7852 8.42578C30.2148 7.41797 30.8359 6.64062 31.6484 6.09375C32.4688 5.54688 33.4297 5.27344 34.5312 5.27344C36 5.27344 37.2109 5.86719 38.1641 7.05469V5.55469H40.1094V16.3125C40.1094 18.25 39.9102 19.6211 39.5117 20.4258C39.1211 21.2383 38.4961 21.8789 37.6367 22.3477C36.7852 22.8164 35.7344 23.0508 34.4844 23.0508C33 23.0508 31.8008 22.7148 30.8867 22.043C29.9727 21.3789 29.5312 20.375 29.5625 19.0312ZM31.3086 11.5547C31.3086 13.1875 31.6328 14.3789 32.2812 15.1289C32.9297 15.8789 33.7422 16.2539 34.7188 16.2539C35.6875 16.2539 36.5 15.8828 37.1562 15.1406C37.8125 14.3906 38.1406 13.2188 38.1406 11.625C38.1406 10.1016 37.8008 8.95312 37.1211 8.17969C36.4492 7.40625 35.6367 7.01953 34.6836 7.01953C33.7461 7.01953 32.9492 7.40234 32.293 8.16797C31.6367 8.92578 31.3086 10.0547 31.3086 11.5547ZM43.2617 18V0.820312H45.3711V18H43.2617ZM48.6641 3.24609V0.820312H50.7734V3.24609H48.6641ZM48.6641 18V5.55469H50.7734V18H48.6641ZM53.1523 14.2852L55.2383 13.957C55.3555 14.793 55.6797 15.4336 56.2109 15.8789C56.75 16.3242 57.5 16.5469 58.4609 16.5469C59.4297 16.5469 60.1484 16.3516 60.6172 15.9609C61.0859 15.5625 61.3203 15.0977 61.3203 14.5664C61.3203 14.0898 61.1133 13.7148 60.6992 13.4414C60.4102 13.2539 59.6914 13.0156 58.543 12.7266C56.9961 12.3359 55.9219 12 55.3203 11.7188C54.7266 11.4297 54.2734 11.0352 53.9609 10.5352C53.6562 10.0273 53.5039 9.46875 53.5039 8.85938C53.5039 8.30469 53.6289 7.79297 53.8789 7.32422C54.1367 6.84766 54.4844 6.45312 54.9219 6.14062C55.25 5.89844 55.6953 5.69531 56.2578 5.53125C56.8281 5.35938 57.4375 5.27344 58.0859 5.27344C59.0625 5.27344 59.918 5.41406 60.6523 5.69531C61.3945 5.97656 61.9414 6.35938 62.293 6.84375C62.6445 7.32031 62.8867 7.96094 63.0195 8.76562L60.957 9.04688C60.8633 8.40625 60.5898 7.90625 60.1367 7.54688C59.6914 7.1875 59.0586 7.00781 58.2383 7.00781C57.2695 7.00781 56.5781 7.16797 56.1641 7.48828C55.75 7.80859 55.543 8.18359 55.543 8.61328C55.543 8.88672 55.6289 9.13281 55.8008 9.35156C55.9727 9.57812 56.2422 9.76562 56.6094 9.91406C56.8203 9.99219 57.4414 10.1719 58.4727 10.4531C59.9648 10.8516 61.0039 11.1797 61.5898 11.4375C62.1836 11.6875 62.6484 12.0547 62.9844 12.5391C63.3203 13.0234 63.4883 13.625 63.4883 14.3438C63.4883 15.0469 63.2812 15.7109 62.8672 16.3359C62.4609 16.9531 61.8711 17.4336 61.0977 17.7773C60.3242 18.1133 59.4492 18.2812 58.4727 18.2812C56.8555 18.2812 55.6211 17.9453 54.7695 17.2734C53.9258 16.6016 53.3867 15.6055 53.1523 14.2852ZM65.9961 18V0.820312H68.1055V6.98438C69.0898 5.84375 70.332 5.27344 71.832 5.27344C72.7539 5.27344 73.5547 5.45703 74.2344 5.82422C74.9141 6.18359 75.3984 6.68359 75.6875 7.32422C75.9844 7.96484 76.1328 8.89453 76.1328 10.1133V18H74.0234V10.1133C74.0234 9.05859 73.793 8.29297 73.332 7.81641C72.8789 7.33203 72.2344 7.08984 71.3984 7.08984C70.7734 7.08984 70.1836 7.25391 69.6289 7.58203C69.082 7.90234 68.6914 8.33984 68.457 8.89453C68.2227 9.44922 68.1055 10.2148 68.1055 11.1914V18H65.9961ZM90.0664 23.0508C88.9023 21.582 87.918 19.8633 87.1133 17.8945C86.3086 15.9258 85.9062 13.8867 85.9062 11.7773C85.9062 9.91797 86.207 8.13672 86.8086 6.43359C87.5117 4.45703 88.5977 2.48828 90.0664 0.527344H91.5781C90.6328 2.15234 90.0078 3.3125 89.7031 4.00781C89.2266 5.08594 88.8516 6.21094 88.5781 7.38281C88.2422 8.84375 88.0742 10.3125 88.0742 11.7891C88.0742 15.5469 89.2422 19.3008 91.5781 23.0508H90.0664ZM105.57 0.820312H107.844V10.7461C107.844 12.4727 107.648 13.8438 107.258 14.8594C106.867 15.875 106.16 16.7031 105.137 17.3438C104.121 17.9766 102.785 18.293 101.129 18.293C99.5195 18.293 98.2031 18.0156 97.1797 17.4609C96.1562 16.9062 95.4258 16.1055 94.9883 15.0586C94.5508 14.0039 94.332 12.5664 94.332 10.7461V0.820312H96.6055V10.7344C96.6055 12.2266 96.7422 13.3281 97.0156 14.0391C97.2969 14.7422 97.7734 15.2852 98.4453 15.668C99.125 16.0508 99.9531 16.2422 100.93 16.2422C102.602 16.2422 103.793 15.8633 104.504 15.1055C105.215 14.3477 105.57 12.8906 105.57 10.7344V0.820312ZM111.969 18V15.5977H114.371V18H111.969ZM118.227 18V0.820312H120.5V9.33984L129.031 0.820312H132.113L124.906 7.78125L132.43 18H129.43L123.312 9.30469L120.5 12.0469V18H118.227ZM135.441 23.0508H133.93C136.266 19.3008 137.434 15.5469 137.434 11.7891C137.434 10.3203 137.266 8.86328 136.93 7.41797C136.664 6.24609 136.293 5.12109 135.816 4.04297C135.512 3.33984 134.883 2.16797 133.93 0.527344H135.441C136.91 2.48828 137.996 4.45703 138.699 6.43359C139.301 8.13672 139.602 9.91797 139.602 11.7773C139.602 13.8867 139.195 15.9258 138.383 17.8945C137.578 19.8633 136.598 21.582 135.441 23.0508Z" fill="black" fill-opacity="0.5"/>
</svg>
